# xmcd
#
# Track frame offsets: 
#        150
#        12841
#        24022
#        39683
#        49418
#        64254
#        75529
#        89277
#        106364
#        121357
#        135576
#
# Disc length: 2015 seconds
#
# Revision: 2
# Processed by: cddbd v1.5.2PL0 Copyright (c) Steve Scherf et al.
# Submitted via: ExactAudioCopy v1.0b1
#
DISCID=8707dd0b
DTITLE=Chris LeDoux - He Rides The Wild Horses
DYEAR=1981
DGENRE=Country
TTITLE0=He Rides The Wild Horses
TTITLE1=So You Want To Be A Cowboy
TTITLE2=Blue Eyes And Freckles
TTITLE3=Back When We Was Kids
TTITLE4=Just Riding Through
TTITLE5=I Got You
TTITLE6=Freedom, Just A State Of Mind
TTITLE7=The Cowboy And The Hippie
TTITLE8=Misfortunes' Own Son
TTITLE9=Old Tom Horn
TTITLE10=When The Rodeo Comes To Town
EXTD=
EXTT0=
EXTT1=
EXTT2=
EXTT3=
EXTT4=
EXTT5=
EXTT6=
EXTT7=
EXTT8=
EXTT9=
EXTT10=
PLAYORDER=
